<svg width="200" height="200" viewBox="0 0 200 200" fill="none" xmlns="http://www.w3.org/2000/svg">
<path d="M175 41.6667L158.333 100H61.4726M166.667 133.333H66.6667L50 25H25M91.6667 25L112.5 45.8333M112.5 45.8333L133.333 66.6667M112.5 45.8333L133.333 25M112.5 45.8333L91.6667 66.6667M75 166.667C75 171.269 71.269 175 66.6667 175C62.0643 175 58.3333 171.269 58.3333 166.667C58.3333 162.064 62.0643 158.333 66.6667 158.333C71.269 158.333 75 162.064 75 166.667ZM166.667 166.667C166.667 171.269 162.936 175 158.333 175C153.731 175 150 171.269 150 166.667C150 162.064 153.731 158.333 158.333 158.333C162.936 158.333 166.667 162.064 166.667 166.667Z" stroke="#92140C" stroke-width="11.264" stroke-linecap="round" stroke-linejoin="round"/>
</svg>
