<svg width="200" height="200" viewBox="0 0 200 200" fill="none" xmlns="http://www.w3.org/2000/svg">
<path d="M85.3583 135.95L50 100.583L61.7833 88.8001L85.3583 112.367L132.492 65.2251L144.283 77.0168L85.3583 135.95Z" fill="#92140C"/>
<path fill-rule="evenodd" clip-rule="evenodd" d="M8.33334 100C8.33334 49.375 49.375 8.33337 100 8.33337C150.625 8.33337 191.667 49.375 191.667 100C191.667 150.625 150.625 191.667 100 191.667C49.375 191.667 8.33334 150.625 8.33334 100ZM100 175C90.1509 175 80.3982 173.06 71.2988 169.291C62.1993 165.522 53.9314 159.997 46.967 153.033C40.0026 146.069 34.4781 137.801 30.709 128.701C26.9399 119.602 25 109.849 25 100C25 90.1509 26.9399 80.3982 30.709 71.2988C34.4781 62.1994 40.0026 53.9314 46.967 46.967C53.9314 40.0026 62.1993 34.4782 71.2988 30.7091C80.3982 26.94 90.1509 25 100 25C119.891 25 138.968 32.9018 153.033 46.967C167.098 61.0323 175 80.1088 175 100C175 119.891 167.098 138.968 153.033 153.033C138.968 167.098 119.891 175 100 175Z" fill="#92140C"/>
</svg>
