<svg width="218" height="45" viewBox="0 0 218 45" fill="none" xmlns="http://www.w3.org/2000/svg">
<path d="M0 20C0 8.9543 8.9543 0 20 0H197.088C208.134 0 217.088 8.95431 217.088 20V25C217.088 36.0457 208.134 45 197.088 45H20C8.9543 45 0 36.0457 0 25V20Z" fill="#92140C"/>
<path d="M91.6994 17.0469V27H89.9973V17.0469H91.6994ZM94.8234 17.0469V18.4141H86.9006V17.0469H94.8234ZM94.8004 23.3838V23.2266C94.8004 22.6934 94.8779 22.1989 95.0328 21.7432C95.1877 21.2829 95.4111 20.8841 95.7027 20.5469C95.9989 20.2051 96.359 19.9408 96.7828 19.7539C97.2112 19.5625 97.6943 19.4668 98.232 19.4668C98.7743 19.4668 99.2574 19.5625 99.6812 19.7539C100.11 19.9408 100.472 20.2051 100.768 20.5469C101.064 20.8841 101.29 21.2829 101.445 21.7432C101.6 22.1989 101.677 22.6934 101.677 23.2266V23.3838C101.677 23.917 101.6 24.4115 101.445 24.8672C101.29 25.3229 101.064 25.7217 100.768 26.0635C100.472 26.4007 100.112 26.665 99.6881 26.8564C99.2642 27.0433 98.7834 27.1367 98.2457 27.1367C97.7034 27.1367 97.218 27.0433 96.7896 26.8564C96.3658 26.665 96.0058 26.4007 95.7096 26.0635C95.4133 25.7217 95.1877 25.3229 95.0328 24.8672C94.8779 24.4115 94.8004 23.917 94.8004 23.3838ZM96.4478 23.2266V23.3838C96.4478 23.7165 96.482 24.0309 96.5504 24.3271C96.6187 24.6234 96.7258 24.8831 96.8717 25.1064C97.0175 25.3298 97.2043 25.5052 97.4322 25.6328C97.6601 25.7604 97.9312 25.8242 98.2457 25.8242C98.551 25.8242 98.8154 25.7604 99.0387 25.6328C99.2665 25.5052 99.4534 25.3298 99.5992 25.1064C99.745 24.8831 99.8521 24.6234 99.9205 24.3271C99.9934 24.0309 100.03 23.7165 100.03 23.3838V23.2266C100.03 22.8984 99.9934 22.5885 99.9205 22.2969C99.8521 22.0007 99.7428 21.7386 99.5924 21.5107C99.4465 21.2829 99.2597 21.1051 99.0318 20.9775C98.8085 20.8454 98.5419 20.7793 98.232 20.7793C97.9221 20.7793 97.6532 20.8454 97.4254 20.9775C97.2021 21.1051 97.0175 21.2829 96.8717 21.5107C96.7258 21.7386 96.6187 22.0007 96.5504 22.2969C96.482 22.5885 96.4478 22.8984 96.4478 23.2266ZM104.812 21.0254V29.8438H103.165V19.6035H104.683L104.812 21.0254ZM109.632 23.2334V23.377C109.632 23.9147 109.568 24.4137 109.44 24.874C109.317 25.3298 109.133 25.7285 108.887 26.0703C108.645 26.4076 108.347 26.6696 107.991 26.8564C107.636 27.0433 107.226 27.1367 106.761 27.1367C106.3 27.1367 105.897 27.0524 105.551 26.8838C105.209 26.7106 104.92 26.4668 104.683 26.1523C104.446 25.8379 104.254 25.4688 104.108 25.0449C103.967 24.6165 103.867 24.1471 103.808 23.6367V23.083C103.867 22.5407 103.967 22.0485 104.108 21.6064C104.254 21.1644 104.446 20.7839 104.683 20.4648C104.92 20.1458 105.209 19.8997 105.551 19.7266C105.893 19.5534 106.291 19.4668 106.747 19.4668C107.212 19.4668 107.624 19.5579 107.984 19.7402C108.344 19.918 108.647 20.1732 108.894 20.5059C109.14 20.834 109.324 21.2305 109.447 21.6953C109.57 22.1556 109.632 22.6683 109.632 23.2334ZM107.984 23.377V23.2334C107.984 22.8916 107.952 22.5749 107.889 22.2832C107.825 21.987 107.725 21.7272 107.588 21.5039C107.451 21.2806 107.276 21.1074 107.062 20.9844C106.852 20.8568 106.599 20.793 106.303 20.793C106.011 20.793 105.76 20.8431 105.551 20.9434C105.341 21.0391 105.166 21.1735 105.024 21.3467C104.883 21.5199 104.774 21.7227 104.696 21.9551C104.619 22.1829 104.564 22.4313 104.532 22.7002V24.0264C104.587 24.3545 104.68 24.6553 104.812 24.9287C104.945 25.2021 105.131 25.4209 105.373 25.585C105.619 25.7445 105.934 25.8242 106.316 25.8242C106.613 25.8242 106.866 25.7604 107.075 25.6328C107.285 25.5052 107.456 25.3298 107.588 25.1064C107.725 24.8786 107.825 24.6165 107.889 24.3203C107.952 24.0241 107.984 23.7096 107.984 23.377ZM120.469 17.0469H122.178V23.6982C122.178 24.4548 122.013 25.0882 121.685 25.5986C121.357 26.109 120.911 26.4941 120.345 26.7539C119.785 27.0091 119.158 27.1367 118.466 27.1367C117.75 27.1367 117.112 27.0091 116.552 26.7539C115.991 26.4941 115.549 26.109 115.225 25.5986C114.906 25.0882 114.747 24.4548 114.747 23.6982V17.0469H116.456V23.6982C116.456 24.1768 116.538 24.571 116.702 24.8809C116.866 25.1862 117.098 25.4118 117.399 25.5576C117.7 25.7035 118.055 25.7764 118.466 25.7764C118.876 25.7764 119.229 25.7035 119.525 25.5576C119.826 25.4118 120.058 25.1862 120.222 24.8809C120.387 24.571 120.469 24.1768 120.469 23.6982V17.0469ZM125.634 21.0254V29.8438H123.987V19.6035H125.504L125.634 21.0254ZM130.453 23.2334V23.377C130.453 23.9147 130.39 24.4137 130.262 24.874C130.139 25.3298 129.954 25.7285 129.708 26.0703C129.467 26.4076 129.168 26.6696 128.813 26.8564C128.457 27.0433 128.047 27.1367 127.582 27.1367C127.122 27.1367 126.719 27.0524 126.372 26.8838C126.03 26.7106 125.741 26.4668 125.504 26.1523C125.267 25.8379 125.076 25.4688 124.93 25.0449C124.789 24.6165 124.688 24.1471 124.629 23.6367V23.083C124.688 22.5407 124.789 22.0485 124.93 21.6064C125.076 21.1644 125.267 20.7839 125.504 20.4648C125.741 20.1458 126.03 19.8997 126.372 19.7266C126.714 19.5534 127.113 19.4668 127.569 19.4668C128.033 19.4668 128.446 19.5579 128.806 19.7402C129.166 19.918 129.469 20.1732 129.715 20.5059C129.961 20.834 130.146 21.2305 130.269 21.6953C130.392 22.1556 130.453 22.6683 130.453 23.2334ZM128.806 23.377V23.2334C128.806 22.8916 128.774 22.5749 128.71 22.2832C128.646 21.987 128.546 21.7272 128.409 21.5039C128.273 21.2806 128.097 21.1074 127.883 20.9844C127.673 20.8568 127.42 20.793 127.124 20.793C126.833 20.793 126.582 20.8431 126.372 20.9434C126.163 21.0391 125.987 21.1735 125.846 21.3467C125.705 21.5199 125.595 21.7227 125.518 21.9551C125.44 22.1829 125.386 22.4313 125.354 22.7002V24.0264C125.408 24.3545 125.502 24.6553 125.634 24.9287C125.766 25.2021 125.953 25.4209 126.195 25.585C126.441 25.7445 126.755 25.8242 127.138 25.8242C127.434 25.8242 127.687 25.7604 127.897 25.6328C128.106 25.5052 128.277 25.3298 128.409 25.1064C128.546 24.8786 128.646 24.6165 128.71 24.3203C128.774 24.0241 128.806 23.7096 128.806 23.377Z" fill="#FFF8F0"/>
</svg>
