<svg width="210" height="180" viewBox="0 0 210 180" fill="none" xmlns="http://www.w3.org/2000/svg">
<path d="M39.1699 36.5624H170.42C171.953 36.562 173.485 36.6454 175.005 36.812C174.49 33.7104 173.247 30.7305 171.352 28.0517C169.456 25.373 166.947 23.0511 163.977 21.2259C161.006 19.4006 157.635 18.11 154.067 17.4317C150.498 16.7534 146.807 16.7015 143.214 17.2792L35.2734 33.0749H35.1504C28.3749 34.1855 22.3497 37.4713 18.3053 42.2612C24.3985 38.5464 31.6925 36.5541 39.1699 36.5624ZM170.42 44.9999H39.1699C32.2103 45.0064 25.5379 47.379 20.6168 51.5972C15.6956 55.8154 12.9275 61.5345 12.9199 67.4999V135C12.9275 140.965 15.6956 146.684 20.6168 150.903C25.5379 155.121 32.2103 157.493 39.1699 157.5H170.42C177.38 157.493 184.052 155.121 188.973 150.903C193.894 146.684 196.662 140.965 196.67 135V67.4999C196.662 61.5345 193.894 55.8154 188.973 51.5972C184.052 47.379 177.38 45.0064 170.42 44.9999ZM150.938 112.5C148.342 112.5 145.804 111.84 143.646 110.604C141.487 109.368 139.805 107.611 138.812 105.555C137.818 103.499 137.558 101.237 138.065 99.0551C138.571 96.8729 139.821 94.8683 141.657 93.295C143.492 91.7216 145.831 90.6502 148.377 90.2161C150.923 89.782 153.562 90.0048 155.96 90.8563C158.359 91.7077 160.408 93.1497 161.851 94.9997C163.293 96.8498 164.062 99.0249 164.062 101.25C164.062 104.234 162.68 107.095 160.218 109.205C157.757 111.315 154.418 112.5 150.938 112.5Z" fill="#92140C"/>
<path d="M13.125 91.2305V56.25C13.125 48.6316 18.0469 35.8594 35.1299 33.0926C49.6289 30.7617 63.9844 30.7617 63.9844 30.7617C63.9844 30.7617 73.418 36.3867 65.625 36.3867C57.832 36.3867 58.0371 45 65.625 45C73.2129 45 65.625 53.2617 65.625 53.2617L35.0684 82.9688L13.125 91.2305Z" fill="#92140C"/>
</svg>
